<svg id="Calque_1" data-name="Calque 1" xmlns="http://www.w3.org/2000/svg" viewBox="0 0 244.62 244.75"><defs><style>.cls-1{fill:#fff;}</style></defs><path class="cls-1" d="M114,114V67H90c-8.7,0-17-11-8-20L120,9c4-4,12.15-4,16,0s31,32,38,39a11.15,11.15,0,0,1-8,19H142v47h47V90c0-10.53,13-15,20-8l38,38c5,5,4.13,10.87-1,16s-29.5,30.5-37,38-20,2-20-8V142H142v47h24c10.45,0,15,13,8,20l-38,38c-5,5-10.7,5-16,0s-30.5-30.5-38-38-2-20,8-20h24V142H67v24c0,10.38-13,15-20,8L9,136c-5-5-4-11,1-16L47,83c7-7,20-4,20,7v24Z" transform="translate(-5.71 -6)"/></svg>